<?xml version="1.0" encoding="utf-8"?>
<!-- Generator: Adobe Illustrator 16.0.0, SVG Export Plug-In . SVG Version: 6.00 Build 0)  -->
<!DOCTYPE svg PUBLIC "-//W3C//DTD SVG 1.1//EN" "http://www.w3.org/Graphics/SVG/1.1/DTD/svg11.dtd">
<svg version="1.1" id="Layer_1" xmlns="http://www.w3.org/2000/svg" xmlns:xlink="http://www.w3.org/1999/xlink" x="0px" y="0px"
	 width="100px" height="100px" viewBox="0 0 100 100" enable-background="new 0 0 100 100" xml:space="preserve">
<g>
	<circle fill="#00BCD4" cx="61.568" cy="44.072" r="2.23"/>
	<path fill="#00BCD4" d="M84.93,74.75c-1.551-2.919-3.309-6.229-3.309-11.422c0-8.688,4.818-11.745,5.016-11.865
		c0.713-0.422,0.947-1.342,0.525-2.055c-0.424-0.714-1.344-0.948-2.057-0.526c-0.265,0.157-6.484,3.961-6.484,14.446
		c0,5.941,2.029,9.761,3.658,12.83c1.169,2.197,2.092,3.935,2.092,5.92c0,1.423-0.311,2.451-0.895,2.975
		c-0.597,0.533-1.375,0.454-1.389,0.454c-0.072-0.011-0.145-0.016-0.218-0.016H76.35c0.643-1.005,1.021-2.195,1.021-3.476V14.391
		c0-0.673-0.448-1.264-1.099-1.445c-0.647-0.183-1.338,0.093-1.687,0.669L67.26,25.742c-2.248-0.043-8.854-0.094-28.628-0.094
		c-4.199,0-6.277,0.003-7.327,0.01l-6.749-12.995c-0.319-0.614-1.02-0.931-1.687-0.766c-0.672,0.164-1.145,0.766-1.145,1.457v68.66
		c0,3.57,2.904,6.476,6.475,6.476h22.922h19.775h10.893c0.098,0.009,0.238,0.018,0.412,0.018c0.732,0,2.053-0.163,3.215-1.166
		c1.297-1.12,1.955-2.892,1.955-5.265C87.371,79.346,86.186,77.113,84.93,74.75z M37.525,49.302c-2.884,0-5.23-2.346-5.23-5.23
		c0-2.884,2.347-5.23,5.23-5.23c2.883,0,5.23,2.346,5.23,5.23C42.755,46.956,40.409,49.302,37.525,49.302z M52.172,55.328h-1.107
		l-0.121,2.084c-0.047,0.797-0.708,1.413-1.497,1.413c-0.029,0-0.059-0.001-0.088-0.002c-0.827-0.048-1.459-0.759-1.41-1.584
		l0.111-1.91h-1.138c-0.828,0-1.5-0.671-1.5-1.5s0.672-1.5,1.5-1.5h5.25c0.828,0,1.5,0.671,1.5,1.5S53,55.328,52.172,55.328z
		 M61.568,49.302c-2.885,0-5.23-2.346-5.23-5.23c0-2.884,2.348-5.23,5.23-5.23c2.885,0,5.231,2.346,5.231,5.23
		C66.8,46.956,64.453,49.302,61.568,49.302z"/>
	<circle fill="#00BCD4" cx="37.525" cy="44.072" r="2.23"/>
</g>
</svg>
